#tb 0: 1/25
0,          0,          0,        1,   149760, 0xda17acd4
0,          0,          0,        1,   149760, 0x1691b47f
0,          1,          1,        1,   149760, 0xeebeac0c
0,          2,          2,        1,   149760, 0x895c9f62
0,          3,          3,        1,   149760, 0x9e2077e8
